<svg xmlns="http://www.w3.org/2000/svg">
    <symbol id="add-icon">
        <svg xmlns="http://www.w3.org/2000/svg" height="20px" viewBox="0 -960 960 960" width="20px">
            <path
                d="M442.09-442.09V-324q0 16.11 10.84 27.01 10.84 10.9 26.86 10.9t27.07-10.9q11.05-10.9 11.05-27.01v-118.09H636q16.11 0 27.01-10.84 10.9-10.84 10.9-26.86t-10.9-27.07q-10.9-11.05-27.01-11.05H517.91V-636q0-16.11-10.84-27.01-10.84-10.9-26.86-10.9t-27.07 10.9q-11.05 10.9-11.05 27.01v118.09H324q-16.11 0-27.01 10.84-10.9 10.84-10.9 26.86t10.9 27.07q10.9 11.05 27.01 11.05h118.09Zm38.19 354.22q-81.19 0-152.62-30.62-71.44-30.62-125-84.17-53.55-53.56-84.17-124.95Q87.87-399 87.87-480.46q0-81.45 30.62-152.38 30.62-70.94 84.17-124.5 53.56-53.55 124.95-84.17 71.39-30.62 152.85-30.62 81.45 0 152.38 30.62 70.94 30.62 124.5 84.17 53.55 53.56 84.17 124.72 30.62 71.16 30.62 152.34 0 81.19-30.62 152.62-30.62 71.44-84.17 125-53.56 53.55-124.72 84.17-71.16 30.62-152.34 30.62Z" />
        </svg>
    </symbol>
    <symbol id="delete-icon">
        <svg xmlns="http://www.w3.org/2000/svg" height="20px" viewBox="0 -960 960 960" width="20px">
            <path
                d="m399.96-304.52 80.8-81.05 81.04 81.05 70.44-70.44L551.2-456l81.04-81.04-70.44-70.44-81.04 81.05-80.8-81.05-70.44 70.44L410.33-456l-80.81 81.04 70.44 70.44Zm-94.11 195.87q-43.87 0-74.52-30.53-30.66-30.54-30.66-74.65v-483.06h-53.5v-105.18h229.57v-60.3h207.8v60.3h229.81v105.18h-53.5v483.06q0 44.11-30.53 74.65-30.54 30.53-74.65 30.53H305.85Z" />
        </svg>
    </symbol>
    <symbol id="edit-icon">
        <svg xmlns="http://www.w3.org/2000/svg" height="20px" viewBox="0 -960 960 960" width="20px">
            <path
                d="M421.86-380.17q-17.34 0-29.51-11.98-12.18-11.97-12.18-29.34v-82.31q0-16.48 5.84-31.52 5.84-15.03 18.17-27.36l326.41-326.17q12.67-12.67 27.58-18.39 14.92-5.72 30.57-5.72 16.31 0 31.39 5.72 15.09 5.72 27.7 18.17l41.02 40.94q12.91 12.67 18.63 27.89 5.72 15.21 5.72 31 0 15.81-5.86 31.17-5.86 15.36-18.49 27.96L562.68-403.94q-12.33 12.33-27.31 18.05-14.99 5.72-31.43 5.72h-82.08Zm364.27-358.07 50.76-51L789-836.89l-50.76 50.76 47.89 47.89ZM218.87-135.87q-34.48 0-58.74-24.26-24.26-24.26-24.26-58.74v-522.26q0-34.9 24.11-59.45 24.11-24.55 58.89-23.55h245.61q13.67 0 23.61 6.96 9.93 6.95 13.98 18.64 4.91 11.68 3.05 23.73-1.86 12.04-11.05 21.23L332.52-592.02q-12.67 12.67-18.51 27.68-5.84 15.02-5.84 31.49v142.14q0 34.32 24.22 58.43 24.21 24.11 58.63 24.11h142.22q16.52 0 31.55-5.84 15.04-5.84 27.71-18.51l161.07-161.07q9.19-9.19 21.23-11.05 12.05-1.86 23.73 3.05 11.69 4.05 18.64 13.98 6.96 9.94 6.96 23.61v245.13q0 34.48-24.26 58.74-24.26 24.26-58.74 24.26H218.87Z" />
        </svg>
    </symbol>
    <symbol id="settings-filled-icon">
        <svg xmlns="http://www.w3.org/2000/svg" height="20px" viewBox="0 -960 960 960" width="20px">
            <path
                d="m431.65-341.37 6.76 30.8q2.24 11.72 11.58 18.94 9.34 7.22 21.29 7.22h16.44q11.95 0 21.29-7.1t11.58-18.82l7.76-31.04q13.04-4.76 25.06-11.02t22.31-15.54l31.04 8.52q11.96 3.24 22.29-1 10.34-4.24 15.82-14.2l8.48-13.96q5.48-9.95 3.74-21.53-1.74-11.57-10.46-20.29l-22.04-21.04q1.52-12.05 2.52-28.07t-1.52-28.07l21.28-20.28q8.72-8.72 10.46-20.17 1.74-11.46-3.74-21.41l-8.48-13.96q-5.48-9.96-16.44-14.82-10.95-4.86-21.91-1.62l-30.04 8.76q-10.29-9.28-22.81-16.04t-25.56-11.52l-6.76-29.8q-2.24-11.72-12.08-19.44-9.84-7.72-21.79-7.72h-15.44q-11.95 0-21.79 7.6t-12.08 19.32l-6.76 30.04q-13.04 4.76-25.56 11.52t-22.81 16.04l-29.04-8.52q-11.96-3.24-22.79 1-10.84 4.24-16.32 15.2l-8.48 12.96q-5.48 10.95-3.74 22.53 1.74 11.57 10.46 20.29l22.04 20.04q-2.52 13.05-2.52 28.07t2.52 28.07l-22.28 21.28q-8.72 8.72-10.46 19.67-1.74 10.96 3.74 21.91l7.48 13.96q5.48 10.96 16.94 15.32 11.45 4.36 23.41 1.12l30.04-9.76q10.29 8.28 22.31 15.04t25.06 11.52ZM480-409.91q-29.28 0-49.68-20.41-20.41-20.4-20.41-49.68t20.41-49.68q20.4-20.41 49.68-20.41t49.68 20.41q20.41 20.4 20.41 49.68t-20.41 49.68q-20.4 20.41-49.68 20.41ZM218.87-135.87q-34.78 0-58.89-24.11t-24.11-58.89v-522.26q0-34.78 24.11-58.89t58.89-24.11h522.26q34.78 0 58.89 24.11t24.11 58.89v522.26q0 34.78-24.11 58.89t-58.89 24.11H218.87Z" />
        </svg>
    </symbol>
    <symbol id="settings-icon">
        <svg xmlns="http://www.w3.org/2000/svg" height="20px" viewBox="0 -960 960 960" width="20px">
            <path
                d="m364.69-68-17.23-128.85q-10.07-4.38-23.24-11.53-13.16-7.15-22.91-15.31L179.46-173 65.16-377l100.61-77.77q-.38-6.85-.96-13.92-.58-7.08-.58-13.93 0-5.94.58-12.34.58-6.4.96-14.27L65.16-585l114.3-201.23 117.46 48.31q11.47-8.46 25.39-15.96t25.77-13.27L364.69-894h230.62l16.23 128.23q13 6.54 25.57 13.27 12.58 6.73 24.43 15.58l119-49.31L894.84-585l-104.15 78.92q1.15 6.69 1.35 13.62.19 6.92.19 12.46 0 5.15-.39 12.08-.38 6.92-.76 14.77L892.46-377 778.15-173l-121.61-51.08q-10.85 7.85-21.81 14.46-10.96 6.62-22.19 11.39L595.31-68H364.69ZM439-154h79.46L533-262.15q31.62-8 58.37-23.32 26.76-15.32 51.48-39.3L740.23-284l40.39-68-84.77-65.38q5-15.54 7.3-31.7 2.31-16.15 2.31-32.65 0-16.89-1.81-31.42-1.8-14.54-6.8-32.7L781.38-610 743-678l-99.54 40.38q-20.08-22.46-50.01-39.71-29.93-17.26-60.83-24.52L521-808h-82.38l-11.24 104.77q-34.61 8.23-62.53 24.65-27.93 16.43-51.47 40.96L217-678l-40.38 68L260-545.62q-5 18.24-7 33.62-2 15.38-2 29.81 0 13.19 2 29.19t6.62 36.62l-83 64.38L217-284l97-41q26.77 25.38 54.19 40.81 27.43 15.42 58.81 23.42L439-154Zm38.46-180q61.52 0 104.76-43.24T625.46-482q0-61.52-43.24-104.76T477.46-630q-61.54 0-104.77 43.24T329.46-482q0 61.52 43.23 104.76T477.46-334ZM479-481Z" />
        </svg>
    </symbol>
    <symbol id="square-icon">
        <svg xmlns="http://www.w3.org/2000/svg" height="20px" viewBox="0 -960 960 960" width="20px">
            <path
                d="M218.87-135.87q-34.48 0-58.74-24.26-24.26-24.26-24.26-58.74v-522.26q0-34.48 24.26-58.74 24.26-24.26 58.74-24.26h522.26q34.48 0 58.74 24.26 24.26 24.26 24.26 58.74v522.26q0 34.48-24.26 58.74-24.26 24.26-58.74 24.26H218.87Zm0-83h522.26v-522.26H218.87v522.26Z" />
        </svg>
    </symbol>
</svg>